<svg xmlns="http://www.w3.org/2000/svg" viewBox="0 0 512 512" id="distribution">
  <g>
    <g>
      <g>
        <polygon fill="#ed664c" points="343.79 196.09 343.79 315.91 256.07 344.21 256 344 256 224.4 343.79 196.09"></polygon>
      </g>
      <g>
        <polygon fill="#fdc75b" points="256 224.4 168.21 196.09 256 167.77 343.79 196.09 256 224.4"></polygon>
      </g>
      <g>
        <polygon fill="#ed664c" points="256 344 256.07 344.21 256 344.23 168.21 315.91 168.21 196.09 256 224.4 256 344"></polygon>
      </g>
    </g>
    <g>
      <path d="M469.777 248H424.16a8 8 0 0 0 0 16h45.617l-14.194 14.143a8 8 0 1 0 11.293 11.334l27.911-27.81a8 8 0 0 0 0-11.334l-27.911-27.81a8 8 0 0 0-11.293 11.334zM45.124 289.477a8 8 0 0 0 11.293-11.334L42.223 264H87.84a8 8 0 1 0 0-16H42.223l14.194-14.143a8 8 0 0 0-11.293-11.334l-27.911 27.81a8 8 0 0 0 0 11.334zM256 416.16a8 8 0 0 0-8 8v45.617l-14.143-14.194a8 8 0 0 0-11.334 11.293l27.81 27.911a8 8 0 0 0 11.334 0l27.81-27.911a8 8 0 0 0-11.334-11.293L264 469.777V424.16A8 8 0 0 0 256 416.16zM233.857 56.417L248 42.223V87.84a8 8 0 1 0 16 0V42.223l14.143 14.194a8 8 0 0 0 11.334-11.293l-27.81-27.911a8 8 0 0 0-11.334 0l-27.81 27.911a8 8 0 0 0 11.334 11.293zM401.507 412.926L381.472 413h-.013a7.911 7.911 0 0 0-8 7.883 8.018 8.018 0 0 0 7.988 8.034l39.39.083h.012a8.129 8.129 0 0 0 8-8.125l-.06-39.638a8.216 8.216 0 0 0-8-8.237h-.013a8.2 8.2 0 0 0-7.988 8.242l.031 20.15-32.254-32.2a8.034 8.034 0 0 0-11.314 11.409zM91.209 139h.013a8.2 8.2 0 0 0 7.988-8.242l-.031-20.15 32.254 32.2a8.018 8.018 0 0 0 11.314-11.364L110.493 99.078 130.528 99h.013a7.911 7.911 0 0 0 8-7.883 8.018 8.018 0 0 0-7.988-8.034L91.162 83H91.15a8.129 8.129 0 0 0-8 8.125l.06 39.638A8.216 8.216 0 0 0 91.209 139zM91.222 373h-.013a8.2 8.2 0 0 0-8 8.218l-.06 39.5a8.307 8.307 0 0 0 2.343 5.8A8.131 8.131 0 0 0 91.15 429h.012l39.39-.135A7.933 7.933 0 1 0 130.541 413h-.013l-20.035-.074 32.254-32.307a8.014 8.014 0 0 0-11.314-11.352L99.179 401.514l.031-20.269A8.2 8.2 0 0 0 91.222 373zM374.91 145.09a7.974 7.974 0 0 0 5.657-2.343l32.254-32.254-.031 20.265A8.2 8.2 0 0 0 420.778 139h.013a8.2 8.2 0 0 0 8-8.218l.06-39.505a8.307 8.307 0 0 0-2.343-5.8A8.131 8.131 0 0 0 420.85 83h-.012l-39.39.135A7.933 7.933 0 1 0 381.459 99h.013l20.035.074-32.254 32.307a8.04 8.04 0 0 0 5.657 13.709z"></path>
      <path d="M165.649,323.524l87.842,28.32a8.153,8.153,0,0,0,2.469.375,8.45,8.45,0,0,0,2.3-.319c.084-.024.174-.049.257-.076l87.829-28.3A8.1,8.1,0,0,0,352,315.91V196.09h0a8.1,8.1,0,0,0-5.649-7.614l-87.842-28.32a8.1,8.1,0,0,0-4.939,0l-87.908,28.32A8.108,8.108,0,0,0,160,196.09h0V315.91A8.1,8.1,0,0,0,165.649,323.524ZM176,207.075l72,23.151V333.243l-72-23.158Zm88,126.171V230.226l72-23.151v103.01Zm-8-157.07,61.728,19.912L256,215.994l-61.728-19.906Z"></path>
    </g>
  </g>
</svg>
