<svg xmlns="http://www.w3.org/2000/svg" viewBox="0 0 265.2 309.01" id="magnifying-glass">
  <g>
    <g>
      <path fill="#fff" d="M203.1,171.34h0L200.77,168a108.82,108.82,0,1,0-66.49,47.16l1.87,2.63,59.25,83.64a18,18,0,0,0,16,7.52h.1c21.65-1.65,38.53-12.13,48.79-30.24a73.68,73.68,0,0,0,3.37-6.71l0-.1a18,18,0,0,0-1.79-17.56Z"></path>
      <path fill="#e0445a" d="M193.45,189l50.6,71.44a8.57,8.57,0,0,1,.53,9.19l0,.05q-9.66,17.05-28.95,20.48a8.63,8.63,0,0,1-8.5-3.56l-50.6-71.43Q166.73,190.48,193.45,189Z"></path>
      <path fill="#fa0" d="M157.67,151.5l29.67,41.89q-4.4,11.55-14.19,15.47a30,30,0,0,1-10.51,2L133,169Z"></path>
      <path fill="#ba2d4c" d="M244.56,269.72q-9.69,17.1-29.07,20.5a8.45,8.45,0,0,1-8.31-3.48l-50.67-71.53c8,4.9,20.08-1.43,20.08-1.43C193.46,237.9,220.33,266.15,244.56,269.72Z"></path>
      <path fill="#ed8c18" d="M153.11,180.57l20,28.29a30,30,0,0,1-10.51,2l-19.17-27Z"></path>
      <circle cx="109.05" cy="109.05" r="90.94" fill="#e0445a"></circle>
      <circle cx="109.05" cy="109.05" r="68.27" fill="#edf2f4"></circle>
      <path fill="#c2c5c6" d="M149.29,121.55a9.06,9.06,0,0,1-7.76-10.19,29.72,29.72,0,0,0-18.8-31.86,9.06,9.06,0,0,1,6.51-16.9,47.77,47.77,0,0,1,30.24,51.19A9.06,9.06,0,0,1,149.29,121.55Z"></path>
      <circle cx="98.89" cy="66.83" r="9.98" fill="#c2c5c6"></circle>
    </g>
  </g>
</svg>
